<mxfile host="app.diagrams.net" modified="2024-01-29T02:03:37.807Z" agent="Mozilla/5.0 (X11; Linux x86_64) AppleWebKit/537.36 (KHTML, like Gecko) Chrome/121.0.0.0 Safari/537.36" etag="Ttnpf4EBhr-w6nydtiyX" version="23.0.0" type="device">
  <diagram name="ページ1" id="LZfI1CUk9km0A86dHVaj">
    <mxGraphModel dx="1389" dy="548" grid="1" gridSize="10" guides="1" tooltips="1" connect="1" arrows="1" fold="1" page="0" pageScale="1" pageWidth="827" pageHeight="1169" math="0" shadow="0">
      <root>
        <mxCell id="0" />
        <mxCell id="1" parent="0" />
        <mxCell id="7eO9XWPZNMCHQ968EDGg-1" value="ユーザ" style="swimlane;fontStyle=0;childLayout=stackLayout;horizontal=1;startSize=26;fillColor=none;horizontalStack=0;resizeParent=1;resizeParentMax=0;resizeLast=0;collapsible=1;marginBottom=0;whiteSpace=wrap;html=1;" vertex="1" parent="1">
          <mxGeometry x="100" y="200" width="140" height="158" as="geometry" />
        </mxCell>
        <mxCell id="7eO9XWPZNMCHQ968EDGg-2" value="氏名" style="text;strokeColor=none;fillColor=none;align=left;verticalAlign=top;spacingLeft=4;spacingRight=4;overflow=hidden;rotatable=0;points=[[0,0.5],[1,0.5]];portConstraint=eastwest;whiteSpace=wrap;html=1;" vertex="1" parent="7eO9XWPZNMCHQ968EDGg-1">
          <mxGeometry y="26" width="140" height="26" as="geometry" />
        </mxCell>
        <mxCell id="7eO9XWPZNMCHQ968EDGg-3" value="メールアドレス" style="text;strokeColor=none;fillColor=none;align=left;verticalAlign=top;spacingLeft=4;spacingRight=4;overflow=hidden;rotatable=0;points=[[0,0.5],[1,0.5]];portConstraint=eastwest;whiteSpace=wrap;html=1;" vertex="1" parent="7eO9XWPZNMCHQ968EDGg-1">
          <mxGeometry y="52" width="140" height="28" as="geometry" />
        </mxCell>
        <mxCell id="7eO9XWPZNMCHQ968EDGg-4" value="パスワード" style="text;strokeColor=none;fillColor=none;align=left;verticalAlign=top;spacingLeft=4;spacingRight=4;overflow=hidden;rotatable=0;points=[[0,0.5],[1,0.5]];portConstraint=eastwest;whiteSpace=wrap;html=1;" vertex="1" parent="7eO9XWPZNMCHQ968EDGg-1">
          <mxGeometry y="80" width="140" height="26" as="geometry" />
        </mxCell>
        <mxCell id="7eO9XWPZNMCHQ968EDGg-5" value="アカウント登録日" style="text;strokeColor=none;fillColor=none;align=left;verticalAlign=top;spacingLeft=4;spacingRight=4;overflow=hidden;rotatable=0;points=[[0,0.5],[1,0.5]];portConstraint=eastwest;whiteSpace=wrap;html=1;" vertex="1" parent="7eO9XWPZNMCHQ968EDGg-1">
          <mxGeometry y="106" width="140" height="26" as="geometry" />
        </mxCell>
        <mxCell id="7eO9XWPZNMCHQ968EDGg-6" value="アカウント変更日" style="text;strokeColor=none;fillColor=none;align=left;verticalAlign=top;spacingLeft=4;spacingRight=4;overflow=hidden;rotatable=0;points=[[0,0.5],[1,0.5]];portConstraint=eastwest;whiteSpace=wrap;html=1;" vertex="1" parent="7eO9XWPZNMCHQ968EDGg-1">
          <mxGeometry y="132" width="140" height="26" as="geometry" />
        </mxCell>
        <mxCell id="7eO9XWPZNMCHQ968EDGg-17" style="edgeStyle=none;curved=1;rounded=0;orthogonalLoop=1;jettySize=auto;html=1;exitX=0;exitY=0.5;exitDx=0;exitDy=0;entryX=1;entryY=0.5;entryDx=0;entryDy=0;fontSize=12;startSize=8;endSize=8;endArrow=none;endFill=0;" edge="1" parent="1" source="7eO9XWPZNMCHQ968EDGg-7" target="7eO9XWPZNMCHQ968EDGg-3">
          <mxGeometry relative="1" as="geometry" />
        </mxCell>
        <mxCell id="7eO9XWPZNMCHQ968EDGg-7" value="タイムライン" style="swimlane;fontStyle=0;childLayout=stackLayout;horizontal=1;startSize=26;fillColor=default;horizontalStack=0;resizeParent=1;resizeParentMax=0;resizeLast=0;collapsible=1;marginBottom=0;whiteSpace=wrap;html=1;" vertex="1" parent="1">
          <mxGeometry x="320" y="240" width="160" height="52" as="geometry" />
        </mxCell>
        <mxCell id="7eO9XWPZNMCHQ968EDGg-8" value="閲覧範囲" style="text;strokeColor=none;fillColor=default;align=left;verticalAlign=top;spacingLeft=4;spacingRight=4;overflow=hidden;rotatable=0;points=[[0,0.5],[1,0.5]];portConstraint=eastwest;whiteSpace=wrap;html=1;" vertex="1" parent="7eO9XWPZNMCHQ968EDGg-7">
          <mxGeometry y="26" width="160" height="26" as="geometry" />
        </mxCell>
        <mxCell id="7eO9XWPZNMCHQ968EDGg-9" value="日記" style="swimlane;fontStyle=0;childLayout=stackLayout;horizontal=1;startSize=26;fillColor=none;horizontalStack=0;resizeParent=1;resizeParentMax=0;resizeLast=0;collapsible=1;marginBottom=0;whiteSpace=wrap;html=1;" vertex="1" parent="1">
          <mxGeometry x="600" y="210" width="130" height="158" as="geometry" />
        </mxCell>
        <mxCell id="7eO9XWPZNMCHQ968EDGg-10" value="作成日時" style="text;strokeColor=none;fillColor=none;align=left;verticalAlign=top;spacingLeft=4;spacingRight=4;overflow=hidden;rotatable=0;points=[[0,0.5],[1,0.5]];portConstraint=eastwest;whiteSpace=wrap;html=1;" vertex="1" parent="7eO9XWPZNMCHQ968EDGg-9">
          <mxGeometry y="26" width="130" height="26" as="geometry" />
        </mxCell>
        <mxCell id="7eO9XWPZNMCHQ968EDGg-11" value="投稿内容" style="text;strokeColor=none;fillColor=none;align=left;verticalAlign=top;spacingLeft=4;spacingRight=4;overflow=hidden;rotatable=0;points=[[0,0.5],[1,0.5]];portConstraint=eastwest;whiteSpace=wrap;html=1;" vertex="1" parent="7eO9XWPZNMCHQ968EDGg-9">
          <mxGeometry y="52" width="130" height="28" as="geometry" />
        </mxCell>
        <mxCell id="7eO9XWPZNMCHQ968EDGg-12" value="公開範囲" style="text;strokeColor=none;fillColor=none;align=left;verticalAlign=top;spacingLeft=4;spacingRight=4;overflow=hidden;rotatable=0;points=[[0,0.5],[1,0.5]];portConstraint=eastwest;whiteSpace=wrap;html=1;" vertex="1" parent="7eO9XWPZNMCHQ968EDGg-9">
          <mxGeometry y="80" width="130" height="26" as="geometry" />
        </mxCell>
        <mxCell id="7eO9XWPZNMCHQ968EDGg-13" value="リアクション数" style="text;strokeColor=none;fillColor=none;align=left;verticalAlign=top;spacingLeft=4;spacingRight=4;overflow=hidden;rotatable=0;points=[[0,0.5],[1,0.5]];portConstraint=eastwest;whiteSpace=wrap;html=1;" vertex="1" parent="7eO9XWPZNMCHQ968EDGg-9">
          <mxGeometry y="106" width="130" height="26" as="geometry" />
        </mxCell>
        <mxCell id="7eO9XWPZNMCHQ968EDGg-14" value="リアクションした人" style="text;strokeColor=none;fillColor=none;align=left;verticalAlign=top;spacingLeft=4;spacingRight=4;overflow=hidden;rotatable=0;points=[[0,0.5],[1,0.5]];portConstraint=eastwest;whiteSpace=wrap;html=1;" vertex="1" parent="7eO9XWPZNMCHQ968EDGg-9">
          <mxGeometry y="132" width="130" height="26" as="geometry" />
        </mxCell>
        <mxCell id="7eO9XWPZNMCHQ968EDGg-15" value="友達" style="swimlane;fontStyle=0;childLayout=stackLayout;horizontal=1;startSize=26;fillColor=none;horizontalStack=0;resizeParent=1;resizeParentMax=0;resizeLast=0;collapsible=1;marginBottom=0;whiteSpace=wrap;html=1;" vertex="1" parent="1">
          <mxGeometry x="120" y="40" width="120" height="52" as="geometry" />
        </mxCell>
        <mxCell id="7eO9XWPZNMCHQ968EDGg-16" value="友達になった日時" style="text;strokeColor=none;fillColor=none;align=left;verticalAlign=top;spacingLeft=4;spacingRight=4;overflow=hidden;rotatable=0;points=[[0,0.5],[1,0.5]];portConstraint=eastwest;whiteSpace=wrap;html=1;" vertex="1" parent="7eO9XWPZNMCHQ968EDGg-15">
          <mxGeometry y="26" width="120" height="26" as="geometry" />
        </mxCell>
        <mxCell id="7eO9XWPZNMCHQ968EDGg-18" value="1" style="text;html=1;strokeColor=none;fillColor=none;align=center;verticalAlign=middle;whiteSpace=wrap;rounded=0;fontSize=16;" vertex="1" parent="1">
          <mxGeometry x="240" y="264" width="20" height="30" as="geometry" />
        </mxCell>
        <mxCell id="7eO9XWPZNMCHQ968EDGg-19" value="1" style="text;html=1;strokeColor=none;fillColor=none;align=center;verticalAlign=middle;whiteSpace=wrap;rounded=0;fontSize=16;" vertex="1" parent="1">
          <mxGeometry x="300" y="264" width="20" height="30" as="geometry" />
        </mxCell>
        <mxCell id="7eO9XWPZNMCHQ968EDGg-21" style="edgeStyle=none;curved=1;rounded=0;orthogonalLoop=1;jettySize=auto;html=1;exitX=1;exitY=0.5;exitDx=0;exitDy=0;entryX=0;entryY=0.5;entryDx=0;entryDy=0;fontSize=12;startSize=8;endSize=8;endArrow=none;endFill=0;" edge="1" parent="1" source="7eO9XWPZNMCHQ968EDGg-7" target="7eO9XWPZNMCHQ968EDGg-10">
          <mxGeometry relative="1" as="geometry" />
        </mxCell>
        <mxCell id="7eO9XWPZNMCHQ968EDGg-22" value="1..*" style="text;html=1;strokeColor=none;fillColor=none;align=center;verticalAlign=middle;whiteSpace=wrap;rounded=0;fontSize=16;" vertex="1" parent="1">
          <mxGeometry x="480" y="262" width="40" height="30" as="geometry" />
        </mxCell>
        <mxCell id="7eO9XWPZNMCHQ968EDGg-23" value="0..*" style="text;html=1;strokeColor=none;fillColor=none;align=center;verticalAlign=middle;whiteSpace=wrap;rounded=0;fontSize=16;" vertex="1" parent="1">
          <mxGeometry x="560" y="251" width="40" height="30" as="geometry" />
        </mxCell>
        <mxCell id="7eO9XWPZNMCHQ968EDGg-24" style="edgeStyle=none;curved=1;rounded=0;orthogonalLoop=1;jettySize=auto;html=1;exitX=1;exitY=0.5;exitDx=0;exitDy=0;fontSize=12;startSize=8;endSize=8;endArrow=none;endFill=0;" edge="1" parent="1" source="7eO9XWPZNMCHQ968EDGg-6">
          <mxGeometry relative="1" as="geometry">
            <mxPoint x="600" y="345" as="targetPoint" />
          </mxGeometry>
        </mxCell>
        <mxCell id="7eO9XWPZNMCHQ968EDGg-25" value="1" style="text;html=1;strokeColor=none;fillColor=none;align=center;verticalAlign=middle;whiteSpace=wrap;rounded=0;fontSize=16;" vertex="1" parent="1">
          <mxGeometry x="240" y="340" width="20" height="30" as="geometry" />
        </mxCell>
        <mxCell id="7eO9XWPZNMCHQ968EDGg-26" value="0..*" style="text;html=1;strokeColor=none;fillColor=none;align=center;verticalAlign=middle;whiteSpace=wrap;rounded=0;fontSize=16;" vertex="1" parent="1">
          <mxGeometry x="560" y="340" width="40" height="30" as="geometry" />
        </mxCell>
        <mxCell id="7eO9XWPZNMCHQ968EDGg-28" style="edgeStyle=none;curved=1;rounded=0;orthogonalLoop=1;jettySize=auto;html=1;exitX=0.5;exitY=0;exitDx=0;exitDy=0;entryX=0.413;entryY=0.967;entryDx=0;entryDy=0;entryPerimeter=0;fontSize=12;startSize=8;endSize=8;endArrow=none;endFill=0;" edge="1" parent="1" source="7eO9XWPZNMCHQ968EDGg-1" target="7eO9XWPZNMCHQ968EDGg-16">
          <mxGeometry relative="1" as="geometry" />
        </mxCell>
        <mxCell id="7eO9XWPZNMCHQ968EDGg-34" style="edgeStyle=none;curved=1;rounded=0;orthogonalLoop=1;jettySize=auto;html=1;exitX=0.75;exitY=0;exitDx=0;exitDy=0;entryX=0;entryY=0.5;entryDx=0;entryDy=0;fontSize=12;startSize=8;endSize=8;endArrow=none;endFill=0;" edge="1" parent="1" source="7eO9XWPZNMCHQ968EDGg-1" target="7eO9XWPZNMCHQ968EDGg-32">
          <mxGeometry relative="1" as="geometry" />
        </mxCell>
        <mxCell id="7eO9XWPZNMCHQ968EDGg-29" value="2" style="text;html=1;strokeColor=none;fillColor=none;align=center;verticalAlign=middle;whiteSpace=wrap;rounded=0;fontSize=16;" vertex="1" parent="1">
          <mxGeometry x="150" y="170" width="20" height="30" as="geometry" />
        </mxCell>
        <mxCell id="7eO9XWPZNMCHQ968EDGg-30" value="0..*" style="text;html=1;strokeColor=none;fillColor=none;align=center;verticalAlign=middle;whiteSpace=wrap;rounded=0;fontSize=16;" vertex="1" parent="1">
          <mxGeometry x="130" y="90" width="40" height="30" as="geometry" />
        </mxCell>
        <mxCell id="7eO9XWPZNMCHQ968EDGg-31" value="友達申請" style="swimlane;fontStyle=0;childLayout=stackLayout;horizontal=1;startSize=26;fillColor=none;horizontalStack=0;resizeParent=1;resizeParentMax=0;resizeLast=0;collapsible=1;marginBottom=0;whiteSpace=wrap;html=1;" vertex="1" parent="1">
          <mxGeometry x="360" y="42" width="80" height="78" as="geometry" />
        </mxCell>
        <mxCell id="7eO9XWPZNMCHQ968EDGg-32" value="申請日時" style="text;strokeColor=none;fillColor=none;align=left;verticalAlign=top;spacingLeft=4;spacingRight=4;overflow=hidden;rotatable=0;points=[[0,0.5],[1,0.5]];portConstraint=eastwest;whiteSpace=wrap;html=1;" vertex="1" parent="7eO9XWPZNMCHQ968EDGg-31">
          <mxGeometry y="26" width="80" height="26" as="geometry" />
        </mxCell>
        <mxCell id="7eO9XWPZNMCHQ968EDGg-33" value="状態" style="text;strokeColor=none;fillColor=none;align=left;verticalAlign=top;spacingLeft=4;spacingRight=4;overflow=hidden;rotatable=0;points=[[0,0.5],[1,0.5]];portConstraint=eastwest;whiteSpace=wrap;html=1;" vertex="1" parent="7eO9XWPZNMCHQ968EDGg-31">
          <mxGeometry y="52" width="80" height="26" as="geometry" />
        </mxCell>
        <mxCell id="7eO9XWPZNMCHQ968EDGg-35" value="2" style="text;html=1;strokeColor=none;fillColor=none;align=center;verticalAlign=middle;whiteSpace=wrap;rounded=0;fontSize=16;" vertex="1" parent="1">
          <mxGeometry x="240" y="170" width="20" height="30" as="geometry" />
        </mxCell>
        <mxCell id="7eO9XWPZNMCHQ968EDGg-36" value="0..*" style="text;html=1;strokeColor=none;fillColor=none;align=center;verticalAlign=middle;whiteSpace=wrap;rounded=0;fontSize=16;" vertex="1" parent="1">
          <mxGeometry x="320" y="51" width="40" height="30" as="geometry" />
        </mxCell>
        <mxCell id="7eO9XWPZNMCHQ968EDGg-37" value="通知" style="swimlane;fontStyle=0;childLayout=stackLayout;horizontal=1;startSize=26;fillColor=none;horizontalStack=0;resizeParent=1;resizeParentMax=0;resizeLast=0;collapsible=1;marginBottom=0;whiteSpace=wrap;html=1;" vertex="1" parent="1">
          <mxGeometry x="-80" y="81" width="80" height="80" as="geometry" />
        </mxCell>
        <mxCell id="7eO9XWPZNMCHQ968EDGg-38" value="作成日時" style="text;strokeColor=none;fillColor=none;align=left;verticalAlign=top;spacingLeft=4;spacingRight=4;overflow=hidden;rotatable=0;points=[[0,0.5],[1,0.5]];portConstraint=eastwest;whiteSpace=wrap;html=1;" vertex="1" parent="7eO9XWPZNMCHQ968EDGg-37">
          <mxGeometry y="26" width="80" height="26" as="geometry" />
        </mxCell>
        <mxCell id="7eO9XWPZNMCHQ968EDGg-39" value="種類" style="text;strokeColor=none;fillColor=none;align=left;verticalAlign=top;spacingLeft=4;spacingRight=4;overflow=hidden;rotatable=0;points=[[0,0.5],[1,0.5]];portConstraint=eastwest;whiteSpace=wrap;html=1;" vertex="1" parent="7eO9XWPZNMCHQ968EDGg-37">
          <mxGeometry y="52" width="80" height="28" as="geometry" />
        </mxCell>
        <mxCell id="7eO9XWPZNMCHQ968EDGg-42" style="edgeStyle=none;curved=1;rounded=0;orthogonalLoop=1;jettySize=auto;html=1;exitX=1;exitY=0.5;exitDx=0;exitDy=0;entryX=0;entryY=0.5;entryDx=0;entryDy=0;fontSize=12;startSize=8;endSize=8;endArrow=none;endFill=0;" edge="1" parent="1" source="7eO9XWPZNMCHQ968EDGg-40" target="7eO9XWPZNMCHQ968EDGg-3">
          <mxGeometry relative="1" as="geometry" />
        </mxCell>
        <mxCell id="7eO9XWPZNMCHQ968EDGg-40" value="通知一覧" style="swimlane;fontStyle=0;childLayout=stackLayout;horizontal=1;startSize=26;fillColor=default;horizontalStack=0;resizeParent=1;resizeParentMax=0;resizeLast=0;collapsible=1;marginBottom=0;whiteSpace=wrap;html=1;" vertex="1" parent="1">
          <mxGeometry x="-80" y="240" width="80" height="52" as="geometry" />
        </mxCell>
        <mxCell id="7eO9XWPZNMCHQ968EDGg-41" value="" style="text;strokeColor=none;fillColor=default;align=left;verticalAlign=top;spacingLeft=4;spacingRight=4;overflow=hidden;rotatable=0;points=[[0,0.5],[1,0.5]];portConstraint=eastwest;whiteSpace=wrap;html=1;" vertex="1" parent="7eO9XWPZNMCHQ968EDGg-40">
          <mxGeometry y="26" width="80" height="26" as="geometry" />
        </mxCell>
        <mxCell id="7eO9XWPZNMCHQ968EDGg-43" value="1" style="text;html=1;strokeColor=none;fillColor=none;align=center;verticalAlign=middle;whiteSpace=wrap;rounded=0;fontSize=16;" vertex="1" parent="1">
          <mxGeometry y="264" width="20" height="30" as="geometry" />
        </mxCell>
        <mxCell id="7eO9XWPZNMCHQ968EDGg-44" value="1" style="text;html=1;strokeColor=none;fillColor=none;align=center;verticalAlign=middle;whiteSpace=wrap;rounded=0;fontSize=16;" vertex="1" parent="1">
          <mxGeometry x="80" y="264" width="20" height="30" as="geometry" />
        </mxCell>
        <mxCell id="7eO9XWPZNMCHQ968EDGg-45" value="コメント" style="swimlane;fontStyle=0;childLayout=stackLayout;horizontal=1;startSize=26;fillColor=none;horizontalStack=0;resizeParent=1;resizeParentMax=0;resizeLast=0;collapsible=1;marginBottom=0;whiteSpace=wrap;html=1;" vertex="1" parent="1">
          <mxGeometry x="120" y="480" width="80" height="80" as="geometry" />
        </mxCell>
        <mxCell id="7eO9XWPZNMCHQ968EDGg-46" value="作成日時" style="text;strokeColor=none;fillColor=none;align=left;verticalAlign=top;spacingLeft=4;spacingRight=4;overflow=hidden;rotatable=0;points=[[0,0.5],[1,0.5]];portConstraint=eastwest;whiteSpace=wrap;html=1;" vertex="1" parent="7eO9XWPZNMCHQ968EDGg-45">
          <mxGeometry y="26" width="80" height="26" as="geometry" />
        </mxCell>
        <mxCell id="7eO9XWPZNMCHQ968EDGg-47" value="投稿内容" style="text;strokeColor=none;fillColor=none;align=left;verticalAlign=top;spacingLeft=4;spacingRight=4;overflow=hidden;rotatable=0;points=[[0,0.5],[1,0.5]];portConstraint=eastwest;whiteSpace=wrap;html=1;" vertex="1" parent="7eO9XWPZNMCHQ968EDGg-45">
          <mxGeometry y="52" width="80" height="28" as="geometry" />
        </mxCell>
        <mxCell id="7eO9XWPZNMCHQ968EDGg-48" style="edgeStyle=none;curved=1;rounded=0;orthogonalLoop=1;jettySize=auto;html=1;exitX=0.5;exitY=0;exitDx=0;exitDy=0;entryX=0.428;entryY=1.008;entryDx=0;entryDy=0;entryPerimeter=0;fontSize=12;startSize=8;endSize=8;endArrow=none;endFill=0;" edge="1" parent="1" source="7eO9XWPZNMCHQ968EDGg-45" target="7eO9XWPZNMCHQ968EDGg-6">
          <mxGeometry relative="1" as="geometry" />
        </mxCell>
        <mxCell id="7eO9XWPZNMCHQ968EDGg-49" value="0..*" style="text;html=1;strokeColor=none;fillColor=none;align=center;verticalAlign=middle;whiteSpace=wrap;rounded=0;fontSize=16;" vertex="1" parent="1">
          <mxGeometry x="160" y="450" width="40" height="30" as="geometry" />
        </mxCell>
        <mxCell id="7eO9XWPZNMCHQ968EDGg-50" value="1" style="text;html=1;strokeColor=none;fillColor=none;align=center;verticalAlign=middle;whiteSpace=wrap;rounded=0;fontSize=16;" vertex="1" parent="1">
          <mxGeometry x="160" y="358" width="20" height="30" as="geometry" />
        </mxCell>
        <mxCell id="7eO9XWPZNMCHQ968EDGg-51" style="edgeStyle=none;curved=1;rounded=0;orthogonalLoop=1;jettySize=auto;html=1;exitX=1;exitY=0.5;exitDx=0;exitDy=0;entryX=0.498;entryY=1.021;entryDx=0;entryDy=0;entryPerimeter=0;fontSize=12;startSize=8;endSize=8;endArrow=none;endFill=0;" edge="1" parent="1" source="7eO9XWPZNMCHQ968EDGg-46" target="7eO9XWPZNMCHQ968EDGg-14">
          <mxGeometry relative="1" as="geometry" />
        </mxCell>
        <mxCell id="7eO9XWPZNMCHQ968EDGg-52" value="0..*" style="text;html=1;strokeColor=none;fillColor=none;align=center;verticalAlign=middle;whiteSpace=wrap;rounded=0;fontSize=16;" vertex="1" parent="1">
          <mxGeometry x="200" y="520" width="40" height="30" as="geometry" />
        </mxCell>
        <mxCell id="7eO9XWPZNMCHQ968EDGg-53" value="1" style="text;html=1;strokeColor=none;fillColor=none;align=center;verticalAlign=middle;whiteSpace=wrap;rounded=0;fontSize=16;" vertex="1" parent="1">
          <mxGeometry x="660" y="368" width="20" height="30" as="geometry" />
        </mxCell>
        <mxCell id="7eO9XWPZNMCHQ968EDGg-54" style="edgeStyle=none;curved=1;rounded=0;orthogonalLoop=1;jettySize=auto;html=1;exitX=0.5;exitY=0;exitDx=0;exitDy=0;entryX=0.508;entryY=0.95;entryDx=0;entryDy=0;entryPerimeter=0;fontSize=12;startSize=8;endSize=8;endArrow=none;endFill=0;" edge="1" parent="1" source="7eO9XWPZNMCHQ968EDGg-40" target="7eO9XWPZNMCHQ968EDGg-39">
          <mxGeometry relative="1" as="geometry" />
        </mxCell>
        <mxCell id="7eO9XWPZNMCHQ968EDGg-55" value="0..*" style="text;html=1;strokeColor=none;fillColor=none;align=center;verticalAlign=middle;whiteSpace=wrap;rounded=0;fontSize=16;" vertex="1" parent="1">
          <mxGeometry x="-40" y="161" width="40" height="30" as="geometry" />
        </mxCell>
        <mxCell id="7eO9XWPZNMCHQ968EDGg-56" value="1" style="text;html=1;strokeColor=none;fillColor=none;align=center;verticalAlign=middle;whiteSpace=wrap;rounded=0;fontSize=16;" vertex="1" parent="1">
          <mxGeometry x="-40" y="210" width="20" height="30" as="geometry" />
        </mxCell>
      </root>
    </mxGraphModel>
  </diagram>
</mxfile>
